<svg width="81" height="81" viewBox="0 0 81 81" fill="none" xmlns="http://www.w3.org/2000/svg">
<g clip-path="url(#clip0_181_25397)">
<path fill-rule="evenodd" clip-rule="evenodd" d="M80.4969 40.2952C80.4969 62.3867 62.5875 80.2968 40.4969 80.2968C18.4063 80.2968 0.5 62.3867 0.5 40.2952C0.5 18.2038 18.4094 0.296753 40.5 0.296753C62.5906 0.296753 80.5 18.2068 80.5 40.2983" fill="#D9D7F9"/>
<path fill-rule="evenodd" clip-rule="evenodd" d="M40.48 80.3689C27.2405 80.3689 15.5025 73.9569 8.22587 64.0814C3.36759 57.4855 11.9334 50.5095 16.2871 43.0492C36.394 8.59233 16.2594 11.216 16.2871 8.82527C23.0038 3.73428 31.3881 0.709106 40.48 0.709106C49.572 0.709106 57.8332 3.6883 64.5252 8.71493C52.6918 27.4422 63.5099 32.147 65.1252 44.3335C65.1252 53.6021 73.6264 59.68 71.9526 65.1082C64.6329 74.4013 53.2549 80.372 40.4769 80.372L40.48 80.3689Z" fill="#C3C1DC"/>
<path fill-rule="evenodd" clip-rule="evenodd" d="M16.8101 55.5866C21.4161 40.5588 33.111 30.7753 27.0866 10.7393H20.3607C26.3851 30.7783 14.6902 40.5588 10.0842 55.5866C9.22578 58.3849 8.7458 61.404 8.52734 64.469C10.4565 67.0405 12.6872 69.37 15.1671 71.4051C14.9548 66.0935 15.3055 60.4967 16.8101 55.5866Z" fill="#786FB8"/>
<path fill-rule="evenodd" clip-rule="evenodd" d="M41.6675 47.3601C35.037 47.3601 23.0498 44.9326 17.0346 40.6875C20.2776 34.5391 23.1575 28.4765 22.5359 20.296H58.23C57.6392 28.2313 60.3406 34.1713 63.4667 40.1358C58.0546 43.866 48.7872 47.3601 41.6675 47.3601ZM71.1679 52.917C69.7987 48.6198 67.8111 44.8713 65.885 41.2454C62.4821 34.8395 59.2299 28.7095 59.873 20.2837C60.4453 20.204 60.8945 19.6615 60.8945 19.0056L65.5497 9.09948C58.6945 3.59165 49.9718 0.296753 40.4799 0.296753C30.9879 0.296753 22.3852 3.54874 15.5485 8.98608L19.2838 19.0056C19.2838 19.7136 19.8068 20.2929 20.4468 20.2929H20.6376C20.7145 28.734 16.1331 34.8671 12.7271 41.2822C10.801 44.905 8.81031 48.6596 7.44421 52.9537C4.89047 60.9749 6.39502 70.7952 8.19495 77.8846H10.7179C9.82258 72.6128 9.12107 65.7533 9.8995 59.3719C13.3148 59.2033 29.8187 59.2707 39.5753 74.9851L39.8122 75.3682H39.8399V77.8846H41.4121V75.3406H41.3844L41.606 74.9851C51.3871 59.237 67.6019 59.2309 70.8941 59.3995C71.6787 65.8023 70.9864 72.6557 70.1064 77.8876H71.7771C72.9525 70.8381 73.7401 60.9963 71.171 52.917" fill="#60579E"/>
<path fill-rule="evenodd" clip-rule="evenodd" d="M35.1418 39.5075C35.2433 39.5228 35.3356 39.5504 35.4433 39.5902C35.1418 39.5197 34.7757 39.4921 34.3572 39.578C34.5264 39.5289 34.6864 39.486 34.748 39.4829C34.9172 39.4768 35.0495 39.4952 35.1418 39.5075ZM38.2155 40.7427C37.7417 40.5863 37.1448 40.3381 36.391 39.9641C36.5417 40.0316 36.7294 40.1143 36.9694 40.2185C37.4032 40.4055 37.9263 40.6293 38.2124 40.7427M39.9724 40.8714C39.9724 40.8714 39.7478 41.1503 38.6893 40.8806C39.0955 40.9572 39.5385 40.945 39.9724 40.8714ZM20.847 48.3929C23.9576 49.5178 26.5421 50.1798 29.9543 51.0503C32.2834 51.6449 33.4465 51.9545 34.2587 52.071C34.2587 52.071 38.8586 52.8035 44.9045 50.6978C45.1137 50.6243 45.4675 50.4741 45.5629 50.1829C45.6952 49.7845 45.3999 49.2297 44.7937 49.0489L37.2402 50.3024C38.9047 49.9162 40.277 49.6772 41.2339 49.527C44.1014 49.0795 48.5597 48.6228 48.5874 48.6198C48.5874 48.6198 48.5997 48.6197 48.6182 48.6167C48.6213 48.6167 48.6243 48.6167 48.6305 48.6167C48.7382 48.6105 49.3443 48.5523 49.6059 48.111C49.8674 47.6727 49.652 47.1516 49.6151 47.0689C49.3105 46.3608 48.4859 46.2198 48.4151 46.2106L44.5691 46.8788C45.9875 46.4957 47.4275 46.1831 49.4489 46.0482C50.3658 45.9869 51.1196 45.993 51.6088 46.0053C51.9011 45.9992 52.1411 45.7662 52.1473 45.475C52.1565 44.859 51.9688 43.915 50.7135 43.9211H50.5812C50.6489 43.9211 50.692 43.9211 50.7135 43.9211H50.7227C51.0304 43.9211 51.2827 43.6697 51.2704 43.3632C51.2612 43.0813 51.1904 42.7319 50.9689 42.4192C50.5689 41.8553 49.8858 41.7204 49.6674 41.6714C48.5751 41.4231 45.5199 40.9327 41.3908 40.4178C42.1692 40.05 42.72 39.5626 42.6707 39.2377C42.6369 38.9925 42.28 38.9558 41.3846 38.5389C40.3416 38.0546 39.5632 37.5183 39.0586 37.1321C36.8802 36.565 35.0433 36.3719 33.7295 36.3076C32.6373 36.2524 31.6281 36.2095 30.3358 36.421C28.4867 36.7244 27.2621 37.1842 26.4437 37.7236C24.2653 39.155 21.5362 39.4829 19.0839 38.591C14.918 37.0769 11.8073 34.4134 9.46585 31.6304C8.60743 30.6128 8.1736 30.0887 7.90284 29.4021C6.51212 25.8988 9.10279 21.9664 10.872 19.119C12.6042 16.3329 14.7949 12.5782 17.2871 7.67419C7.35824 14.7329 0.804651 26.1992 0.509277 39.204C6.35521 42.8453 13.9918 45.4536 13.9918 45.4536C16.7117 46.8083 19.0747 47.7524 20.847 48.3929Z" fill="#C3C1DC"/>
<path fill-rule="evenodd" clip-rule="evenodd" d="M39.8523 37.7574C39.6092 37.7574 39.3661 37.7574 39.1261 37.788C39.0061 37.8003 38.8892 37.8156 38.7723 37.8401C38.6585 37.8646 38.5446 37.8983 38.4492 37.9505C38.4031 37.978 38.3631 38.0087 38.3354 38.0455C38.3108 38.0823 38.2985 38.119 38.3015 38.165C38.3077 38.2539 38.3631 38.355 38.4308 38.4409C38.5692 38.6186 38.7508 38.778 38.9354 38.9251C39.0277 38.9987 39.1261 39.0723 39.2215 39.1458C39.3107 39.2102 39.4123 39.2684 39.5169 39.3175C39.7261 39.4186 39.9538 39.4799 40.1876 39.5197C40.6553 39.5933 41.1414 39.5443 41.6122 39.4247C41.3907 39.5228 41.1537 39.5933 40.9107 39.6393C40.6676 39.6822 40.4184 39.6945 40.1692 39.6699C39.9199 39.6485 39.6738 39.5841 39.443 39.486C39.3261 39.4339 39.2154 39.3757 39.1077 39.2991C39.0092 39.2286 38.9108 39.1581 38.8154 39.0784C38.6246 38.9221 38.4369 38.7596 38.2831 38.5512C38.2092 38.447 38.1385 38.3275 38.1323 38.1711C38.1323 38.0945 38.16 38.0118 38.2092 37.9505C38.2585 37.8922 38.32 37.8524 38.3785 37.8217C38.5015 37.7635 38.6246 37.7359 38.7477 37.7175C38.8708 37.7022 38.9938 37.693 39.1169 37.693C39.363 37.6961 39.6061 37.7144 39.8461 37.7574" fill="#60579E"/>
<path fill-rule="evenodd" clip-rule="evenodd" d="M0.669077 36.3997C0.576773 37.3866 0.521391 38.3827 0.50293 39.388C4.85045 41.9443 12.2409 44.8039 13.9916 45.4507C16.2962 46.3027 23.1513 48.8743 23.1513 48.8743C20.5668 46.6828 4.95199 38.962 0.669077 36.3997Z" fill="#786FB8"/>
<path fill-rule="evenodd" clip-rule="evenodd" d="M8.78911 43.8537C10.4475 44.5648 12.1182 45.2269 13.8289 45.8337C16.4134 47.1241 19.0902 48.2428 21.8255 49.1746C23.1978 49.6405 24.5885 50.0573 25.9854 50.4374C27.3822 50.8205 28.7822 51.1699 30.176 51.5224L32.2744 52.0496C32.6251 52.1354 32.9789 52.2212 33.3389 52.2978C33.6958 52.3745 34.0651 52.448 34.4435 52.4879C35.9234 52.6411 37.388 52.589 38.8433 52.4419C40.2987 52.2887 41.7386 52.0097 43.1478 51.6235C43.4985 51.5224 43.8524 51.4335 44.197 51.314L44.717 51.1423L44.9785 51.0565C45.0646 51.0289 45.1692 50.9891 45.2677 50.9431C45.3662 50.8971 45.4677 50.8389 45.5662 50.7623C45.6646 50.6856 45.7631 50.5876 45.84 50.4558C45.9938 50.1769 45.9815 49.8857 45.9077 49.6435C45.8615 49.4995 45.7938 49.3738 45.7108 49.2604L46.7107 49.1378L48.6153 48.9202H48.6522L48.726 48.9079C48.7722 48.9018 48.8183 48.8957 48.8645 48.8865C48.9568 48.8681 49.046 48.8466 49.1383 48.816C49.3168 48.7516 49.4983 48.6627 49.6552 48.5156C49.7352 48.4451 49.7998 48.3593 49.8583 48.2673C49.9106 48.1754 49.9568 48.0773 49.9814 47.9762C50.0367 47.7739 50.0367 47.5685 50.0091 47.3816C49.9783 47.1946 49.9229 47.0138 49.8275 46.8391C49.7352 46.6674 49.6091 46.5142 49.4645 46.3885C49.3937 46.3272 49.3168 46.272 49.2368 46.223C49.6921 46.1862 50.1475 46.1617 50.606 46.1525C50.9044 46.1464 51.2059 46.1464 51.5044 46.1525C51.5444 46.1525 51.5782 46.1525 51.6244 46.1525C51.6767 46.1525 51.7228 46.1433 51.769 46.131C51.8613 46.1065 51.9505 46.0667 52.0244 46.0084C52.1751 45.895 52.2767 45.7142 52.292 45.5242C52.2951 45.4721 52.292 45.4383 52.292 45.3985C52.292 45.3587 52.292 45.3188 52.2859 45.279C52.2828 45.1993 52.2736 45.1196 52.2613 45.0399C52.2367 44.8805 52.1936 44.7242 52.1228 44.5709C52.0521 44.4208 51.9597 44.2767 51.8336 44.1602C51.7075 44.0468 51.5628 43.9518 51.4059 43.8966C51.3505 43.8721 51.2921 43.8568 51.2336 43.8415C51.2859 43.7863 51.329 43.7219 51.3598 43.6545C51.3905 43.584 51.4121 43.5043 51.4182 43.4277C51.4213 43.3419 51.4182 43.2867 51.409 43.2193C51.3967 43.0875 51.3721 42.9557 51.3321 42.8269C51.2552 42.5695 51.1136 42.3274 50.9259 42.1312C50.7352 41.935 50.5044 41.791 50.2613 41.6868C50.1383 41.6347 50.0152 41.5917 49.8891 41.558C49.7629 41.5243 49.6429 41.4998 49.5198 41.4722C49.2737 41.4201 49.0306 41.3711 48.7845 41.3251C48.2953 41.2331 47.8061 41.1473 47.3138 41.0676C45.6185 40.7887 43.917 40.5404 42.2155 40.3106C42.2401 40.2922 42.2647 40.2769 42.2924 40.2585C42.4463 40.1451 42.597 40.0255 42.7386 39.8631C42.8093 39.7834 42.877 39.6884 42.9324 39.5688C42.9847 39.4524 43.0339 39.2746 42.9663 39.0754C42.9293 38.9712 42.8586 38.8945 42.797 38.8394C42.7693 38.8179 42.7386 38.7934 42.7109 38.775C42.6863 38.7597 42.6555 38.7413 42.634 38.729C42.5355 38.6739 42.4524 38.6401 42.3663 38.6034L41.8863 38.4041C41.5755 38.2693 41.2709 38.1221 40.9694 37.9628C40.3725 37.644 39.8002 37.2762 39.2649 36.8655L39.2126 36.8256L39.1449 36.8073C37.8218 36.4578 36.4711 36.2096 35.1081 36.0686C34.425 35.995 33.742 35.9582 33.062 35.9307C32.379 35.9031 31.6805 35.9092 30.9882 35.9828C30.2929 36.0594 29.6222 36.1851 28.9483 36.3475C28.2776 36.5161 27.6099 36.7276 26.9699 37.0341C26.8099 37.1138 26.653 37.1934 26.4992 37.2854C26.4223 37.3283 26.3454 37.3804 26.2715 37.4264L26.0654 37.5551L25.8592 37.6839L25.6469 37.8003C25.5762 37.8371 25.5054 37.88 25.4315 37.9137L25.2131 38.0179C24.6254 38.2877 24.0039 38.4869 23.367 38.6095C22.0932 38.8547 20.761 38.775 19.5241 38.3827C19.2164 38.2907 18.9056 38.162 18.5949 38.0425C18.438 37.9842 18.2872 37.9168 18.1334 37.8494C17.9795 37.7819 17.8288 37.7206 17.6749 37.6501L17.2257 37.4356L17.0011 37.3283L16.7796 37.2118L16.3396 36.9789L15.9058 36.7306C14.752 36.0686 13.672 35.2809 12.6536 34.4227C11.6444 33.5522 10.6998 32.6051 9.83214 31.5906C9.61369 31.3393 9.39524 31.0787 9.18294 30.8243C8.97064 30.5669 8.76141 30.3094 8.57988 30.0458C8.39835 29.7792 8.24759 29.5095 8.1399 29.2121C8.0199 28.9148 7.94298 28.6022 7.87837 28.2896C7.81683 27.9739 7.79222 27.6521 7.78299 27.3302C7.77684 27.0084 7.80145 26.6835 7.84145 26.3617C7.88145 26.0399 7.94914 25.718 8.02606 25.3993C8.10913 25.0805 8.20451 24.7679 8.3122 24.4552C8.75218 23.2078 9.38601 22.0247 10.0629 20.8692C10.4044 20.2899 10.7583 19.7198 11.109 19.1436C11.4598 18.5673 11.8074 17.9881 12.1521 17.4057C14.0504 14.1844 15.8165 10.8895 17.4688 7.54248C17.3488 7.62524 17.2319 7.71106 17.1119 7.79688C15.4412 10.9876 13.6843 14.1323 11.8075 17.2065C11.4567 17.7827 11.1029 18.3528 10.746 18.9229C10.386 19.493 10.0229 20.06 9.67215 20.6393C8.97064 21.7948 8.30912 22.9963 7.83837 24.2867C7.72145 24.6085 7.61992 24.9395 7.52762 25.2736C7.44146 25.6077 7.3707 25.9479 7.32147 26.2912C7.27532 26.6375 7.24455 26.9839 7.24763 27.3364C7.25378 27.6858 7.27532 28.0382 7.33993 28.3877C7.40454 28.734 7.49069 29.0804 7.61684 29.4083C7.73376 29.7455 7.91222 30.0703 8.10913 30.3615C8.30605 30.6558 8.51835 30.9255 8.73372 31.1891C8.9491 31.4527 9.1614 31.7101 9.386 31.9707C10.266 33.0097 11.2229 33.9874 12.2536 34.8855C13.2905 35.7743 14.395 36.5927 15.5827 37.2823L16.0288 37.5398L16.4811 37.7819L16.7088 37.9015L16.9396 38.0149L17.4011 38.2386C17.558 38.3091 17.7149 38.3765 17.8718 38.447C18.0287 38.5145 18.1857 38.588 18.3457 38.6463C18.6656 38.7689 18.9795 38.9007 19.321 39.0049C20.6594 39.434 22.1086 39.5259 23.4901 39.2623C24.1824 39.1336 24.8562 38.9191 25.4962 38.6279L25.7361 38.5175C25.8161 38.4777 25.8931 38.4348 25.97 38.3949L26.2038 38.2693L26.4284 38.1313L26.653 37.9934C26.7207 37.9505 26.7853 37.9076 26.8561 37.8708C26.9915 37.7881 27.1361 37.7176 27.2776 37.6471C27.8561 37.3712 28.4837 37.172 29.1237 37.0126C29.7637 36.8624 30.4221 36.7337 31.0713 36.6632C31.7236 36.5927 32.379 36.5866 33.0466 36.6111C33.7174 36.6356 34.385 36.6724 35.0466 36.7429C36.3511 36.8747 37.6465 37.1138 38.9203 37.4325C39.471 37.8463 40.0556 38.2141 40.6679 38.5359C40.9848 38.7014 41.3078 38.8547 41.634 38.9926L42.1201 39.1918C42.197 39.2225 42.274 39.2562 42.3263 39.2838C42.3355 39.2869 42.3417 39.293 42.3478 39.296C42.3293 39.3328 42.3017 39.3849 42.2555 39.434C42.1694 39.5351 42.0494 39.6363 41.9232 39.7282C41.6678 39.9152 41.3786 40.0715 41.0771 40.2033C40.474 40.4608 39.8187 40.6263 39.1818 40.614C39.0218 40.614 38.8679 40.5926 38.7172 40.565C38.6433 40.5496 38.5664 40.5313 38.4957 40.5067L38.4403 40.4914L38.3818 40.4669L38.2618 40.4178L37.3111 40.0255C36.9942 39.8968 36.6742 39.7558 36.3604 39.6179C36.345 39.6117 36.3296 39.6056 36.3142 39.5964C36.3111 39.5964 36.305 39.5903 36.3019 39.5903C36.2157 39.5443 36.1296 39.5045 36.0434 39.4708C35.9881 39.4493 35.9327 39.4278 35.8773 39.4095H35.8711C35.8281 39.3911 35.7819 39.3757 35.7358 39.3604L35.6096 39.3175C35.5235 39.2899 35.4312 39.2623 35.3296 39.2409C35.2804 39.2317 35.2219 39.2225 35.1758 39.2164C35.1296 39.2102 35.0835 39.2072 35.0342 39.2041C34.985 39.201 34.9389 39.198 34.8896 39.198H34.8158H34.7789H34.7327C34.6589 39.2072 34.6189 39.2164 34.5697 39.2256L34.4343 39.2562L34.1943 39.3175C34.1604 39.3236 34.1266 39.3298 34.0927 39.339L33.8743 39.3972C33.8743 39.3972 33.8804 39.3972 33.8835 39.4003L33.8004 39.4217C33.8004 39.4217 33.8097 39.4156 33.8128 39.4125L33.7543 39.4309L33.7266 39.4401C33.7266 39.4401 33.7235 39.4401 33.6866 39.4585C33.6435 40.3719 33.9635 39.7711 33.8651 39.9458L33.8897 39.9397L33.9297 39.9305L34.0589 39.8968L34.3112 39.8324L34.5112 39.7834C34.7543 39.7466 35.0004 39.7435 35.2435 39.7742C35.305 39.7895 35.3665 39.8079 35.4373 39.8324L35.5573 39.8753C35.5942 39.8876 35.6311 39.9029 35.6681 39.9182C35.8127 39.9765 35.9727 40.0531 36.1327 40.1267C36.4527 40.2707 36.7665 40.4148 37.0926 40.5527L38.0649 40.9665L38.188 41.0186L38.2495 41.0431L38.3203 41.0646C38.4126 41.0983 38.508 41.1197 38.6033 41.1412C38.7941 41.181 38.9849 41.2056 39.1726 41.2117C39.551 41.2239 39.9233 41.1841 40.2833 41.1075C40.6433 41.0308 40.994 40.9174 41.3325 40.7795C41.434 40.7366 41.5325 40.6906 41.6309 40.6447C43.517 40.8684 45.4 41.1136 47.2769 41.3987C47.7661 41.4722 48.2553 41.5519 48.7414 41.6377C48.9845 41.6806 49.2275 41.7266 49.4675 41.7726C49.5845 41.7971 49.7106 41.8216 49.8244 41.8523C49.9383 41.8829 50.0491 41.9166 50.1567 41.9595C50.3721 42.0454 50.566 42.171 50.7229 42.3304C50.8798 42.4898 50.9967 42.686 51.0613 42.9005C51.0952 43.0078 51.1167 43.1212 51.129 43.2346C51.1352 43.2898 51.1382 43.3572 51.1382 43.394C51.1352 43.44 51.1229 43.4829 51.1075 43.5227C51.0736 43.6055 51.0059 43.676 50.9229 43.7158C50.8829 43.7373 50.8398 43.7526 50.7936 43.7556C50.769 43.7587 50.7506 43.7587 50.7229 43.7618H50.6306L50.3506 43.774L49.5783 43.7863L45.96 43.8384L38.7233 43.9334V44.1664L41.7017 44.2185L43.1909 44.2461L43.5631 44.2522C43.6862 44.2522 43.8124 44.2461 43.9354 44.243L44.68 44.2215L50.6275 44.053H50.7198C50.7475 44.0499 50.7813 44.0499 50.8121 44.0468C50.849 44.0468 50.8859 44.0499 50.9229 44.053C50.9936 44.0591 51.0613 44.0744 51.129 44.0836C51.1936 44.1051 51.2644 44.1143 51.3228 44.1449C51.4521 44.1909 51.5598 44.2675 51.6582 44.3533C51.7536 44.4422 51.8274 44.5556 51.8828 44.6782C51.9413 44.8008 51.9751 44.9357 51.9967 45.0736C52.0059 45.1441 52.0151 45.2115 52.0182 45.282C52.0182 45.3188 52.0213 45.3525 52.0213 45.3893C52.0213 45.423 52.0213 45.4659 52.0213 45.4874C52.0121 45.5977 51.9536 45.7019 51.8644 45.7663C51.8213 45.8 51.769 45.8245 51.7167 45.8368C51.689 45.8429 51.6613 45.846 51.6367 45.8491C51.6059 45.8491 51.5659 45.8491 51.529 45.8491C51.2244 45.8399 50.9229 45.8368 50.6183 45.8399C50.0121 45.846 49.4029 45.8797 48.7999 45.9318C48.7353 45.9379 48.6737 45.9441 48.6091 45.9502C48.566 45.941 48.526 45.9318 48.4799 45.9226L48.4337 45.9165L48.3876 45.9257L47.6153 46.0636C46.9692 46.1525 46.3292 46.2659 45.6923 46.41L38.1111 47.7739L38.1603 48.2061C39.3725 48.1325 40.5817 47.9915 41.7755 47.7647C42.3724 47.6513 42.9662 47.5134 43.5508 47.354C43.6924 47.3141 43.8339 47.2743 43.9724 47.2344L48.4245 46.4866C48.5353 46.5111 48.6583 46.5509 48.766 46.6C48.8891 46.6582 48.9999 46.7287 49.0952 46.8115C49.286 46.98 49.4029 47.1977 49.4398 47.4582C49.4768 47.7095 49.4183 47.9333 49.2614 48.0681C49.1845 48.1417 49.0737 48.1969 48.9537 48.2367C48.8922 48.2582 48.8306 48.2735 48.766 48.2857C48.7353 48.2919 48.7014 48.2949 48.6706 48.3011H48.6245C48.5999 48.3041 48.5506 48.3133 48.5445 48.3133L46.6523 48.5095L44.9477 48.6995C44.9477 48.6995 44.9231 48.6903 44.9108 48.6873L44.8308 48.6627L44.7477 48.6781L43.8401 48.8313C42.877 48.9509 41.914 49.0765 40.9479 49.2267C39.6802 49.4259 38.4218 49.6711 37.1726 49.9562L37.308 50.6335L44.7693 49.4106C44.8646 49.4474 44.9539 49.5026 45.0277 49.5669C45.1169 49.6497 45.1846 49.7508 45.2154 49.8489C45.2308 49.8979 45.2369 49.947 45.2339 49.9868C45.2339 50.0052 45.2308 50.0267 45.2246 50.042C45.2215 50.0635 45.2154 50.0665 45.2092 50.0788C45.1846 50.1278 45.0862 50.2075 44.96 50.2657C44.8954 50.2964 44.8308 50.3209 44.7446 50.3485L44.4923 50.4313L43.9847 50.5937C43.6493 50.7102 43.3016 50.7929 42.9601 50.891C41.5878 51.2588 40.1879 51.5255 38.7756 51.6665C38.068 51.7339 37.3603 51.7768 36.6526 51.7891C35.945 51.7952 35.2342 51.7737 34.545 51.694C34.2066 51.6542 33.8681 51.5898 33.5205 51.5132C33.1759 51.4366 32.8282 51.3508 32.4805 51.2649L30.3883 50.7286C27.5976 50.0052 24.81 49.3064 22.1024 48.3777C19.3918 47.4551 16.7488 46.3425 14.1858 45.0675L14.1612 45.0552L14.1335 45.046C12.4474 44.4575 10.7675 43.7986 9.11525 43.0967C7.463 42.3917 5.82922 41.6469 4.23236 40.8286C2.96779 40.1788 1.72784 39.4861 0.527885 38.7321C0.518655 39.0294 0.509424 39.3267 0.506348 39.624C1.60169 40.3044 2.7278 40.9328 3.86929 41.5243C5.48154 42.358 7.13071 43.1181 8.79526 43.8353" fill="#60579E"/>
<path fill-rule="evenodd" clip-rule="evenodd" d="M33.8003 39.4585L33.8157 39.4524L33.9018 39.4309C33.868 39.4218 33.8311 39.4371 33.8003 39.4585Z" fill="#60579E"/>
<path fill-rule="evenodd" clip-rule="evenodd" d="M70.4603 19.447C70.8202 20.0171 71.1833 20.5841 71.534 21.1634C72.2356 22.3189 72.8971 23.5204 73.3678 24.8108C73.4847 25.1326 73.5894 25.4636 73.6786 25.7977C73.7647 26.1318 73.8355 26.472 73.8847 26.8153C73.9309 27.1616 73.9617 27.508 73.9586 27.8605C73.9524 28.2099 73.9309 28.5624 73.8663 28.9118C73.8017 29.2581 73.7155 29.6045 73.5894 29.9324C73.4724 30.2696 73.294 30.5945 73.0971 30.8856C72.9001 31.1799 72.6879 31.4496 72.4725 31.7132C72.2571 31.9768 72.0448 32.2343 71.8202 32.4948C70.9402 33.5338 69.9833 34.5116 68.9526 35.4096C67.9157 36.2985 66.8112 37.1168 65.6235 37.8064L65.1774 38.0639L64.722 38.3061L64.4943 38.4256L64.2636 38.539L63.802 38.7627C63.6451 38.8332 63.4882 38.9007 63.3313 38.9712C63.1744 39.0386 63.0175 39.1122 62.8575 39.1704C62.5375 39.293 62.2236 39.4248 61.8852 39.529C60.5468 39.9581 59.0976 40.05 57.7161 39.7865C57.0238 39.6577 56.35 39.4432 55.71 39.152L55.4701 39.0417C55.3901 39.0018 55.3131 38.9589 55.2362 38.9191L55.0055 38.7934L54.7808 38.6555L54.5562 38.5175C54.4886 38.4746 54.4239 38.4317 54.3532 38.3949C54.2178 38.3122 54.0732 38.2417 53.9317 38.1712C53.3532 37.8953 52.7255 37.6961 52.0856 37.5367C51.4456 37.3865 50.7872 37.2578 50.138 37.1873C49.4857 37.1168 48.8303 37.1107 48.1626 37.1352C47.4919 37.1597 46.8242 37.1965 46.1627 37.267C44.8582 37.3988 43.5628 37.6379 42.289 37.9566C41.7383 38.3704 41.1537 38.7382 40.5414 39.06C40.2245 39.2256 39.9014 39.3788 39.5753 39.5167L39.0891 39.716C39.0122 39.7466 38.9353 39.7803 38.883 39.8079C38.8738 39.814 38.8676 39.8171 38.8615 39.8202C38.8799 39.8569 38.9076 39.9091 38.9538 39.9581C39.0399 40.0592 39.1599 40.1604 39.2861 40.2523C39.5414 40.4393 39.8307 40.5956 40.1322 40.7274C40.7352 40.9849 41.3906 41.1504 42.0275 41.1381C42.1875 41.1381 42.3413 41.1167 42.4921 41.0891C42.5659 41.0738 42.6429 41.0554 42.7136 41.0308L42.769 41.0155L42.8275 40.991L42.9475 40.942L43.8982 40.5496C44.2151 40.4209 44.5351 40.2799 44.8489 40.142C44.8643 40.1359 44.8797 40.1297 44.8951 40.1205C44.8982 40.1205 44.9043 40.1144 44.9074 40.1144C44.9935 40.0684 45.0797 40.0286 45.1658 39.9949C45.2212 39.9734 45.2766 39.952 45.332 39.9336H45.3381C45.3812 39.9152 45.4274 39.8999 45.4735 39.8845L45.5997 39.8416C45.6858 39.814 45.7781 39.7865 45.8797 39.765C45.9289 39.7558 45.9873 39.7466 46.0335 39.7405C46.0796 39.7344 46.1258 39.7313 46.175 39.7282C46.2243 39.7252 46.2704 39.7221 46.3196 39.7221H46.3935H46.4304H46.4766C46.5504 39.7313 46.5904 39.7405 46.6396 39.7497L46.775 39.7803L47.0119 39.8416C47.0458 39.8478 47.0796 39.8539 47.1135 39.8631L47.335 39.9213C47.3565 39.9152 47.3781 39.9244 47.3965 39.9366L47.455 39.955L47.4827 39.9642C47.4827 39.9642 47.4857 39.9642 47.5227 39.9826C47.5657 40.896 47.2458 40.2952 47.3442 40.47L47.3196 40.4638L47.2796 40.4546L47.1504 40.4209L46.8981 40.3565L46.6981 40.3075C46.455 40.2707 46.2089 40.2677 45.9658 40.2983C45.9043 40.3136 45.8427 40.332 45.772 40.3565L45.652 40.3995C45.615 40.4117 45.5781 40.427 45.5412 40.4424C45.3966 40.5006 45.2366 40.5772 45.0766 40.6508C44.7566 40.7948 44.4428 40.9389 44.1166 41.0768L43.1444 41.4906L43.0213 41.5427L42.9598 41.5672L42.889 41.5887C42.7967 41.6224 42.7013 41.6439 42.6059 41.6653C42.4152 41.7052 42.2244 41.7297 42.0367 41.7358C41.6583 41.7481 41.286 41.7082 40.926 41.6316C40.566 41.555 40.2153 41.4416 39.8768 41.3036C39.7753 41.2607 39.6768 41.2148 39.5784 41.1688C37.6923 41.3925 35.8093 41.6377 33.9324 41.9228C33.4432 41.9963 32.954 42.076 32.4679 42.1618C32.2248 42.2048 31.9817 42.2507 31.7417 42.2967C31.6248 42.3212 31.4987 42.3457 31.3848 42.3764C31.271 42.407 31.1602 42.4408 31.0525 42.4837C30.8372 42.5695 30.6433 42.6952 30.4864 42.8545C30.3295 43.0139 30.2126 43.2101 30.148 43.4246C30.1141 43.5319 30.0926 43.6453 30.0803 43.7587C30.0741 43.8139 30.071 43.8813 30.071 43.9181C30.0741 43.9641 30.0864 44.007 30.1018 44.0468C30.1356 44.1296 30.2033 44.2001 30.2864 44.2399C30.3264 44.2614 30.3695 44.2767 30.4156 44.2798C30.4402 44.2828 30.4587 44.2828 30.4864 44.2859H30.5787L30.8587 44.2982L31.631 44.3104L35.2493 44.3625L42.4859 44.4575V44.6905L39.5076 44.7426L38.0184 44.7702L37.6461 44.7763C37.5231 44.7763 37.3969 44.7702 37.2738 44.7671L36.5292 44.7457L30.5818 44.5771H30.4895C30.4618 44.574 30.4279 44.574 30.3972 44.5709C30.3603 44.5709 30.3233 44.574 30.2864 44.5771C30.2156 44.5832 30.148 44.5985 30.0803 44.6077C30.0156 44.6292 29.9449 44.6384 29.8864 44.669C29.7572 44.715 29.6495 44.7916 29.5511 44.8774C29.4557 44.9663 29.3818 45.0797 29.3264 45.2023C29.268 45.3249 29.2341 45.4598 29.2126 45.5977C29.2034 45.6652 29.1941 45.7356 29.1911 45.8061C29.1911 45.8429 29.188 45.8766 29.188 45.9134C29.188 45.9471 29.188 45.99 29.188 46.0115C29.1972 46.1218 29.2557 46.2261 29.3449 46.2904C29.388 46.3241 29.4403 46.3487 29.4926 46.3609C29.5203 46.367 29.548 46.3701 29.5726 46.3701C29.6034 46.3701 29.6434 46.3701 29.6803 46.3701C29.9849 46.3609 30.2864 46.3578 30.591 46.3609C31.1971 46.367 31.8063 46.4008 32.4094 46.4529C32.474 46.459 32.5356 46.4651 32.6002 46.4713C32.6432 46.4621 32.6832 46.4529 32.7294 46.4437L32.7755 46.4375L32.8217 46.4467L33.5909 46.5847C34.237 46.6735 34.877 46.7869 35.5139 46.931L43.0951 48.2949L43.0459 48.7271C41.8337 48.6535 40.6245 48.5126 39.4307 48.2857C38.8338 48.1723 38.2399 48.0344 37.6554 47.875C37.5138 47.8352 37.3723 47.7953 37.2338 47.7555L32.7817 47.0076C32.6709 47.0321 32.5479 47.072 32.4402 47.121C32.3171 47.1762 32.2033 47.2498 32.111 47.3325C31.9202 47.5011 31.8033 47.7187 31.7664 47.9792C31.7294 48.2306 31.7879 48.4543 31.9448 48.5892C32.0217 48.6627 32.1325 48.7179 32.2525 48.7578C32.314 48.7792 32.3756 48.7945 32.4402 48.8068C32.4709 48.8129 32.5048 48.816 32.5356 48.8221H32.5817C32.6063 48.8283 32.6555 48.8344 32.6617 48.8344L34.5539 49.0305L36.2585 49.2206C36.2585 49.2206 36.2831 49.2114 36.2954 49.2083L36.3754 49.1838L36.4585 49.1991L37.3661 49.3524C38.3292 49.4719 39.2922 49.5976 40.2583 49.7478C41.526 49.947 42.7844 50.1922 44.0336 50.4772L43.8982 51.1546L36.4369 49.9317C36.3416 49.9684 36.2523 50.0236 36.1785 50.088C36.0893 50.1707 36.0216 50.2719 35.9908 50.37C35.9754 50.419 35.9693 50.468 35.9723 50.5079C35.9723 50.5263 35.9754 50.5477 35.9816 50.563C35.9847 50.5845 35.9908 50.5876 35.997 50.5998C36.0216 50.6489 36.12 50.7286 36.2462 50.7868C36.3108 50.8174 36.3754 50.842 36.4616 50.8695L36.7139 50.9523L37.2215 51.1148C37.5569 51.2312 37.9046 51.314 38.2461 51.4121C39.6184 51.7799 41.0183 52.0465 42.4306 52.1875C43.1382 52.2549 43.8459 52.2978 44.5535 52.307C45.2612 52.3132 45.972 52.2917 46.6612 52.212C46.9996 52.1722 47.3381 52.1078 47.6857 52.0312C48.0303 51.9546 48.378 51.8687 48.7257 51.7829L50.8179 51.2465C53.6086 50.5232 56.3962 49.8244 59.1038 48.8957C61.8144 47.9731 64.4574 46.8605 67.0204 45.5855L67.045 45.5732L67.0727 45.564C68.7588 44.9755 70.4387 44.3166 72.091 43.6147C73.7432 42.9097 75.377 42.1649 76.9738 41.3465C78.1584 40.7366 79.3276 40.0899 80.4568 39.3911C80.2229 26.3647 73.7124 14.8679 63.8113 7.76929C65.5681 11.1469 67.4173 14.4755 69.3988 17.7214C69.7495 18.2976 70.1033 18.8677 70.4633 19.4378" fill="#C3C1DC"/>
<path fill-rule="evenodd" clip-rule="evenodd" d="M47.3443 39.9365C47.3443 39.9365 47.3351 39.9396 47.332 39.9427L47.4428 39.9794C47.4428 39.9794 47.4336 39.9702 47.4274 39.9641L47.4151 39.958L47.3474 39.9365H47.3443Z" fill="#F4F6FB"/>
<path fill-rule="evenodd" clip-rule="evenodd" d="M47.3413 39.9397L47.4275 39.9612L47.4459 39.9673C47.4152 39.9459 47.3782 39.9305 47.3444 39.9397" fill="#60579E"/>
<path fill-rule="evenodd" clip-rule="evenodd" d="M73.651 27.0544C74.5217 30.101 70.6572 33.3561 70.6572 33.3561C67.0666 37.6931 60.4761 39.5198 60.4761 39.5198C62.7837 38.8915 65.4451 37.9659 68.2727 36.5682C69.7003 35.8602 70.9957 35.1215 72.1556 34.389C72.5556 34.1744 75.0755 32.7584 75.7863 29.6873C76.3647 27.1893 75.3709 25.2031 75.094 24.6882C75.094 24.6882 70.6265 17.3598 67.6173 10.8773C66.5835 9.92404 65.4974 9.02598 64.3652 8.18311L70.328 19.6371C73.8848 24.7924 73.651 27.0544 73.651 27.0544Z" fill="#948EBE"/>
<path fill-rule="evenodd" clip-rule="evenodd" d="M47.3413 39.9397L47.4275 39.9612L47.4459 39.9673C47.4152 39.9459 47.3782 39.9305 47.3444 39.9397" fill="#60579E"/>
<path fill-rule="evenodd" clip-rule="evenodd" d="M70.0974 19.6707C70.4481 20.2469 70.8051 20.82 71.1435 21.3963C71.8204 22.5518 72.4542 23.7349 72.8942 24.9823C73.0019 25.295 73.0973 25.6076 73.1803 25.9264C73.2573 26.2451 73.3219 26.5669 73.365 26.8888C73.405 27.2106 73.4296 27.5355 73.4234 27.8573C73.4142 28.1791 73.3896 28.501 73.328 28.8167C73.2634 29.1293 73.1865 29.4419 73.0665 29.7392C72.9588 30.0365 72.808 30.3063 72.6265 30.5729C72.445 30.8365 72.2358 31.094 72.0235 31.3514C71.8112 31.6058 71.5927 31.8694 71.3743 32.1177C70.5066 33.1322 69.562 34.0793 68.5528 34.9498C67.5344 35.808 66.4575 36.5957 65.3006 37.2577L64.8668 37.506L64.4238 37.7389L64.2022 37.8554L63.9776 37.9627L63.5284 38.1772C63.3776 38.2447 63.2238 38.309 63.07 38.3765C62.9161 38.4408 62.7654 38.5113 62.6084 38.5696C62.2977 38.686 61.9869 38.8148 61.6792 38.9098C60.4424 39.3021 59.1101 39.3818 57.8363 39.1366C57.1994 39.014 56.5779 38.8148 55.9902 38.545L55.7687 38.4439C55.6949 38.4071 55.6272 38.3673 55.5533 38.3305L55.341 38.214L55.1349 38.0853L54.9287 37.9566C54.8518 37.9075 54.778 37.8585 54.7011 37.8156C54.5472 37.7236 54.3872 37.6409 54.2303 37.5642C53.5903 37.2577 52.9227 37.0432 52.2519 36.8777C51.5781 36.7152 50.9074 36.5865 50.212 36.5129C49.5197 36.4394 48.8213 36.4332 48.1382 36.4608C47.4583 36.4884 46.7752 36.5252 46.0922 36.5987C44.7291 36.7397 43.3784 36.988 42.0554 37.3374L41.9877 37.3558L41.9354 37.3957C41.4 37.8094 40.8277 38.1742 40.2308 38.4929C39.9324 38.6523 39.6278 38.7994 39.314 38.9343L38.834 39.1335C38.7509 39.1703 38.6678 39.204 38.5663 39.2592C38.5417 39.2714 38.514 39.2898 38.4894 39.3052C38.4617 39.3235 38.4309 39.345 38.4032 39.3695C38.3417 39.4247 38.274 39.5013 38.234 39.6055C38.1663 39.8078 38.2125 39.9825 38.2678 40.099C38.3232 40.2185 38.3909 40.3135 38.4617 40.3932C38.6001 40.5557 38.7509 40.6783 38.9078 40.7886C38.9324 40.807 38.957 40.8223 38.9847 40.8407C37.2833 41.0706 35.5818 41.3158 33.8865 41.5978C33.3973 41.6775 32.905 41.7633 32.4158 41.8553C32.1696 41.9012 31.9265 41.9503 31.6804 42.0024C31.5573 42.03 31.4373 42.0545 31.3112 42.0882C31.185 42.1219 31.0589 42.1648 30.9389 42.2169C30.6958 42.3181 30.4651 42.4652 30.2743 42.6614C30.0866 42.8575 29.9451 43.0997 29.8682 43.3571C29.8282 43.4858 29.8036 43.6176 29.7912 43.7494C29.7851 43.8169 29.7789 43.8751 29.782 43.9579C29.7882 44.0375 29.8066 44.1142 29.8405 44.1847C29.8712 44.2552 29.9143 44.3165 29.9666 44.3716C29.9082 44.387 29.8497 44.4053 29.7943 44.4268C29.6374 44.482 29.4928 44.577 29.3666 44.6904C29.2405 44.8069 29.1482 44.9509 29.0774 45.1011C29.0067 45.2513 28.9636 45.4107 28.939 45.5701C28.9267 45.6497 28.9174 45.7294 28.9144 45.8091C28.9144 45.849 28.9082 45.8888 28.9082 45.9287C28.9082 45.9685 28.9082 46.0053 28.9082 46.0543C28.9236 46.2444 29.022 46.4252 29.1759 46.5386C29.2528 46.5968 29.339 46.6397 29.4313 46.6612C29.4774 46.6735 29.5236 46.6796 29.5759 46.6827C29.6189 46.6827 29.6559 46.6827 29.6959 46.6827C29.9943 46.6765 30.2958 46.6765 30.5943 46.6827C31.0497 46.6918 31.5081 46.7164 31.9635 46.7532C31.8835 46.8022 31.8066 46.8574 31.7358 46.9187C31.5912 47.0413 31.465 47.1945 31.3727 47.3662C31.2773 47.5409 31.222 47.7186 31.1912 47.9087C31.1604 48.0956 31.1604 48.301 31.2189 48.5033C31.2435 48.6044 31.2896 48.7025 31.342 48.7944C31.4004 48.8864 31.465 48.9722 31.545 49.0427C31.7019 49.1898 31.8835 49.2787 32.0619 49.3431C32.1512 49.3737 32.2435 49.3983 32.3358 49.4136C32.3819 49.4228 32.4281 49.4289 32.4742 49.435L32.5481 49.4412H32.585L34.4895 49.6618L35.4895 49.7845C35.4064 49.8979 35.3356 50.0266 35.2926 50.1676C35.2157 50.4097 35.2033 50.7009 35.3603 50.9798C35.4372 51.1116 35.5356 51.2097 35.6341 51.2863C35.7326 51.3629 35.8341 51.4212 35.9325 51.4671C36.031 51.5131 36.1356 51.553 36.2218 51.5806L36.4833 51.6664L37.0033 51.838C37.3479 51.9576 37.7017 52.0464 38.0525 52.1476C39.4616 52.5338 40.9016 52.8127 42.3569 52.9659C43.8153 53.11 45.2768 53.1652 46.7567 53.0119C47.1352 52.969 47.5044 52.8985 47.8613 52.8219C48.2213 52.7453 48.5721 52.6594 48.9259 52.5736L51.0243 52.0464C52.4211 51.6909 53.8211 51.3415 55.2149 50.9614C56.6118 50.5814 57.9994 50.1645 59.3747 49.6986C62.1131 48.7669 64.7868 47.6481 67.3713 46.3578C69.082 45.7509 70.7527 45.0888 72.4111 44.3778C74.0757 43.6605 75.7249 42.9004 77.3371 42.0667C78.3955 41.515 79.4416 40.9357 80.4631 40.3105C80.4631 40.2523 80.4631 40.1971 80.4631 40.1388C80.4631 39.8967 80.4631 39.6546 80.457 39.4124C79.3278 40.1113 78.1617 40.758 76.974 41.3679C75.3772 42.1863 73.7434 42.9341 72.0912 43.636C70.4389 44.3379 68.759 44.9938 67.0729 45.5854L67.0452 45.5946L67.0206 45.6068C64.4576 46.8819 61.8146 47.9945 59.104 48.9171C56.3964 49.8427 53.6119 50.5446 50.8181 51.2679L48.7259 51.8043C48.3782 51.8901 48.0305 51.9759 47.6859 52.0526C47.3383 52.1292 46.9998 52.1966 46.6614 52.2334C45.9691 52.31 45.2583 52.3315 44.5538 52.3284C43.8461 52.3192 43.1384 52.2763 42.4308 52.2058C41.0185 52.0618 39.6186 51.7982 38.2463 51.4304C37.9048 51.3323 37.5602 51.2495 37.2217 51.1331L36.7141 50.9706L36.4618 50.8879C36.4002 50.8695 36.3541 50.8511 36.3048 50.8327C36.3325 50.7591 36.3633 50.6856 36.3941 50.6151C36.431 50.5354 36.4679 50.4557 36.5171 50.4036C36.5664 50.3484 36.6064 50.3362 36.6833 50.3423C36.7571 50.3484 36.8556 50.3668 36.9417 50.3821C37.0217 50.3913 37.0956 50.422 37.1663 50.4618C37.3079 50.5476 37.434 50.6764 37.5294 50.8357C37.5109 50.6488 37.4125 50.4649 37.2556 50.3362C37.1787 50.2687 37.0802 50.2258 36.9787 50.2013C36.8864 50.1829 36.8033 50.1584 36.6956 50.1492C36.6433 50.1492 36.5787 50.1492 36.5202 50.1768C36.4587 50.2013 36.4095 50.2442 36.3756 50.2902C36.311 50.3821 36.2771 50.4741 36.2525 50.566C36.2341 50.6396 36.2187 50.7131 36.2095 50.7867C36.1018 50.7315 36.0218 50.6641 35.9972 50.6181C35.991 50.6028 35.9849 50.5997 35.9818 50.5814C35.9756 50.566 35.9756 50.5446 35.9725 50.5262C35.9695 50.4863 35.9787 50.4373 35.991 50.3883C36.0218 50.2871 36.0895 50.186 36.1787 50.1063C36.2525 50.0419 36.3387 49.9898 36.4371 49.95L43.8984 51.1729L44.0338 50.4955C42.7846 50.2105 41.5262 49.9653 40.2585 49.7661C39.2955 49.6159 38.3325 49.4902 37.3663 49.3707L36.4587 49.2174L36.3756 49.2021L36.2956 49.2266C36.2956 49.2266 36.271 49.2358 36.2587 49.2389L34.5541 49.0488L32.6619 48.8527C32.6619 48.8527 32.6065 48.8466 32.5819 48.8435H32.5358C32.505 48.8374 32.4711 48.8312 32.4404 48.8251C32.3758 48.8128 32.3111 48.7975 32.2527 48.7761C32.2158 48.7638 32.1819 48.7485 32.1481 48.7332C32.2127 48.5523 32.2711 48.3715 32.3419 48.2029C32.3911 48.0956 32.4373 47.9853 32.5081 47.9087C32.5758 47.829 32.6496 47.8045 32.7573 47.8136C32.865 47.8198 32.9911 47.8504 33.108 47.8688C33.2188 47.8841 33.3203 47.9301 33.4188 47.9853C33.6126 48.1048 33.7757 48.2918 33.8895 48.5094C33.8495 48.2611 33.7142 48.0282 33.5049 47.8627C33.4003 47.7799 33.2742 47.7217 33.1419 47.688C33.0188 47.6635 32.905 47.6328 32.7665 47.6205C32.6988 47.6205 32.6188 47.6205 32.545 47.6543C32.4711 47.6849 32.4065 47.737 32.3635 47.7953C32.2773 47.9117 32.2342 48.0343 32.1973 48.1569C32.145 48.3408 32.1142 48.5278 32.0988 48.7148C32.0404 48.6841 31.9881 48.6504 31.945 48.6106C31.7881 48.4757 31.7296 48.2489 31.7666 48.0006C31.8035 47.7401 31.9204 47.5225 32.1112 47.3539C32.2065 47.2711 32.3204 47.1976 32.4404 47.1424C32.5481 47.0934 32.6711 47.0505 32.7819 47.029L37.234 47.7769C37.3756 47.8167 37.514 47.8566 37.6556 47.8964C38.2432 48.0588 38.834 48.1937 39.4309 48.3071C40.6247 48.5339 41.8339 48.6749 43.0461 48.7485L43.0953 48.3163L35.5141 46.9524C34.8803 46.8083 34.2372 46.6949 33.5911 46.606L32.8219 46.4681L32.7757 46.4589L32.7296 46.465C32.6865 46.4712 32.6434 46.4804 32.6004 46.4926C32.5358 46.4865 32.4742 46.4804 32.4096 46.4742C31.8066 46.4221 31.1973 46.3884 30.5912 46.3823C30.2866 46.3792 29.9851 46.3823 29.6805 46.3915C29.6497 46.3915 29.6189 46.3915 29.5882 46.3915C29.6282 46.2076 29.662 46.0237 29.7112 45.849C29.7451 45.7356 29.7789 45.6191 29.8374 45.5363C29.8928 45.4475 29.9635 45.4137 30.0712 45.4076C30.1789 45.4015 30.3081 45.4137 30.4281 45.4168C30.5389 45.4168 30.6466 45.4475 30.7512 45.4934C30.9574 45.5884 31.145 45.7509 31.2866 45.9532C31.2158 45.7141 31.0497 45.4965 30.822 45.3586C30.7081 45.2881 30.5758 45.2482 30.4405 45.2329C30.3143 45.2237 30.1974 45.2084 30.0589 45.2145C29.9912 45.2206 29.9112 45.2329 29.8405 45.2758C29.7697 45.3157 29.7143 45.377 29.6805 45.4383C29.6097 45.5639 29.582 45.6927 29.5636 45.8183C29.5359 46.0114 29.5297 46.2014 29.5389 46.3915C29.5236 46.3915 29.5082 46.3884 29.4928 46.3823C29.4405 46.37 29.3882 46.3455 29.3451 46.3118C29.2559 46.2444 29.1974 46.1401 29.1882 46.0329C29.1851 46.0084 29.1882 45.9685 29.1882 45.9348C29.1882 45.898 29.1882 45.8643 29.1913 45.8275C29.1913 45.757 29.2005 45.6865 29.2128 45.6191C29.2343 45.4812 29.2682 45.3463 29.3266 45.2237C29.382 45.1011 29.4559 44.9877 29.5513 44.8988C29.6497 44.813 29.7574 44.7364 29.8866 44.6904C29.9482 44.6628 30.0159 44.6505 30.0805 44.6291C30.1482 44.6199 30.2189 44.6046 30.2866 44.5984C30.3235 44.5984 30.3605 44.5954 30.3974 44.5923C30.4281 44.5954 30.462 44.5954 30.4897 44.5954H30.582L36.5294 44.767L37.274 44.7885C37.3971 44.7885 37.5233 44.7977 37.6463 44.7977L38.0186 44.7915L39.5078 44.764L42.4861 44.7118V44.4789L35.2495 44.3839L31.6312 44.3318L30.8589 44.3195L30.5789 44.3103H30.4866C30.4681 44.3073 30.4528 44.3073 30.4374 44.3042C30.4866 44.0866 30.5266 43.8659 30.582 43.6575C30.6158 43.5441 30.6497 43.4276 30.7081 43.3448C30.7635 43.256 30.8343 43.2222 30.942 43.2161C31.0497 43.21 31.1789 43.2222 31.2989 43.2253C31.4096 43.2253 31.5173 43.256 31.6219 43.3019C31.8281 43.397 32.0158 43.5594 32.1573 43.7617C32.0865 43.5226 31.9204 43.305 31.6927 43.1671C31.5789 43.0966 31.4466 43.0567 31.3112 43.0414C31.185 43.0322 31.0681 43.0169 30.9297 43.023C30.862 43.0292 30.782 43.0414 30.7112 43.0843C30.6404 43.1242 30.5851 43.1855 30.5512 43.2468C30.4804 43.3724 30.4528 43.5012 30.4343 43.6238C30.4005 43.8506 30.4005 44.0743 30.4158 44.2981C30.3697 44.2919 30.3266 44.2797 30.2866 44.2582C30.2066 44.2153 30.1389 44.1479 30.102 44.0651C30.0835 44.0253 30.0743 43.9793 30.0712 43.9364C30.0712 43.8966 30.0712 43.8291 30.0805 43.777C30.0928 43.6636 30.1143 43.5502 30.1482 43.4429C30.2128 43.2253 30.3328 43.0322 30.4866 42.8728C30.6435 42.7135 30.8404 42.5909 31.0527 42.502C31.1604 42.4591 31.2712 42.4223 31.385 42.3947C31.4989 42.3671 31.6219 42.3426 31.7419 42.315C31.9819 42.266 32.225 42.22 32.4681 42.1801C32.9542 42.0943 33.4434 42.0177 33.9326 41.9411C35.8095 41.656 37.6925 41.4139 39.5786 41.1871C39.677 41.2361 39.7755 41.279 39.877 41.3219C40.2155 41.4629 40.5662 41.5763 40.9262 41.6499C41.2862 41.7265 41.6585 41.7664 42.0369 41.7541C42.2246 41.748 42.4185 41.7235 42.6061 41.6836C42.7015 41.6622 42.7938 41.6376 42.8892 41.607L42.96 41.5855L43.0215 41.561L43.1446 41.5089L44.1168 41.0951C44.443 40.9572 44.7568 40.8162 45.0768 40.6691C45.2368 40.5986 45.3968 40.5189 45.5414 40.4607C45.5783 40.4453 45.6153 40.4331 45.6522 40.4178L45.7722 40.3748C45.8399 40.3503 45.9045 40.3319 45.966 40.3166C46.2091 40.286 46.4552 40.289 46.6983 40.3258L46.8983 40.3748L47.1506 40.4392L47.2798 40.4729L47.3198 40.4821L47.3444 40.4883C47.246 40.3135 47.5659 40.9112 47.5229 40.0009C47.4859 39.9795 47.489 39.9825 47.4829 39.9825L47.4552 39.9733L47.3967 39.9549C47.3967 39.9549 47.406 39.9611 47.409 39.9641L47.326 39.9427C47.326 39.9427 47.3321 39.9427 47.3352 39.9396L47.1167 39.8814C47.0829 39.8722 47.049 39.8661 47.0152 39.8599L46.7783 39.7986L46.6429 39.768C46.5937 39.7588 46.5537 39.7496 46.4798 39.7404H46.4337H46.3968H46.3229C46.2737 39.7404 46.2245 39.7435 46.1783 39.7465C46.1291 39.7496 46.0829 39.7557 46.0368 39.7588C45.9906 39.7649 45.9322 39.771 45.8829 39.7833C45.7814 39.8048 45.6891 39.8323 45.6029 39.8599L45.4768 39.9028C45.4337 39.9182 45.3876 39.9335 45.3414 39.9519H45.3353C45.2799 39.9703 45.2245 39.9917 45.1691 40.0132C45.0799 40.0469 44.9937 40.0898 44.9107 40.1327C44.9076 40.1327 44.9014 40.1388 44.8984 40.1388C44.883 40.145 44.8676 40.1511 44.8522 40.1603C44.5384 40.2982 44.2184 40.4392 43.9015 40.5679L42.9507 40.9603L42.8307 41.0093L42.7723 41.0338L42.7169 41.0492C42.6461 41.0737 42.5692 41.089 42.4954 41.1074C42.3446 41.135 42.1877 41.1564 42.0308 41.1564C41.3939 41.1687 40.7385 41.0062 40.1355 40.7457C39.8339 40.6139 39.5447 40.4576 39.2893 40.2706C39.1632 40.1787 39.0432 40.0775 38.957 39.9764C38.9109 39.9243 38.8832 39.8752 38.8647 39.8385C38.8709 39.8354 38.8771 39.8293 38.8863 39.8262C38.9386 39.7956 39.0155 39.7649 39.0924 39.7343L39.5786 39.535C39.9078 39.3971 40.2308 39.2439 40.5447 39.0783C40.917 38.8822 41.2831 38.6676 41.6339 38.4378C41.7108 38.4408 41.7908 38.447 41.8677 38.4561C41.9877 38.4684 42.1046 38.4837 42.2215 38.5083C42.3354 38.5328 42.4492 38.5665 42.5446 38.6186C42.5908 38.6462 42.6308 38.6768 42.6584 38.7136C42.6831 38.7504 42.6954 38.7872 42.6923 38.8331C42.6861 38.922 42.6308 39.0232 42.5631 39.109C42.4246 39.2868 42.2431 39.4461 42.0585 39.5933C41.9662 39.6668 41.8677 39.7404 41.7723 39.8139C41.6862 39.8783 41.5816 39.9366 41.4769 39.9856C41.2677 40.0867 41.04 40.148 40.8062 40.1879C40.3385 40.2614 39.8524 40.2124 39.3816 40.0929C39.6032 40.1909 39.8401 40.2614 40.0832 40.3074C40.3262 40.3503 40.5754 40.3626 40.8247 40.3381C41.0739 40.3166 41.32 40.2522 41.5508 40.1542C41.6677 40.1021 41.7785 40.0438 41.8862 39.9672C41.9846 39.8967 42.0831 39.8262 42.1785 39.7465C42.3692 39.5902 42.5569 39.4278 42.7107 39.2193C42.7846 39.1151 42.8554 38.9956 42.8615 38.8393C42.8615 38.7626 42.8338 38.6799 42.7846 38.6186C42.7354 38.5604 42.6738 38.5205 42.6154 38.4899C42.4923 38.4316 42.3692 38.404 42.2461 38.3857C42.1231 38.3703 42 38.3611 41.8769 38.3611C41.8339 38.3611 41.7877 38.3611 41.7446 38.3642C41.9323 38.2385 42.1169 38.1098 42.2954 37.9749C43.5692 37.6562 44.8645 37.4171 46.1691 37.2853C46.8306 37.2148 47.4983 37.1811 48.169 37.1535C48.8367 37.129 49.492 37.1351 50.1443 37.2056C50.7935 37.2761 51.4519 37.4018 52.0919 37.555C52.7319 37.7113 53.3596 37.9106 53.938 38.1895C54.0826 38.26 54.2242 38.3335 54.3595 38.4132C54.4303 38.4531 54.4949 38.496 54.5626 38.5358L54.7872 38.6738L55.0118 38.8117L55.2456 38.9374C55.3226 38.9772 55.3995 39.0232 55.4795 39.06L55.7195 39.1703C56.3595 39.4615 57.0333 39.676 57.7256 39.8048C59.107 40.0683 60.5562 39.9764 61.8946 39.5473C62.2331 39.4431 62.5469 39.3113 62.8669 39.1887C63.0269 39.1305 63.1838 39.0569 63.3407 38.9895C63.4976 38.919 63.6576 38.8546 63.8115 38.781L64.273 38.5573L64.5038 38.4439L64.7314 38.3244L65.1868 38.0822L65.6329 37.8248C66.8175 37.1351 67.9221 36.3168 68.962 35.4279C69.9928 34.5299 70.9497 33.5521 71.8296 32.5131C72.0512 32.2556 72.2635 31.9951 72.4819 31.7315C72.6973 31.4679 72.9096 31.1982 73.1065 30.9039C73.3034 30.6128 73.4788 30.2879 73.5988 29.9507C73.728 29.6197 73.8111 29.2764 73.8757 28.9301C73.9403 28.5837 73.9619 28.2313 73.968 27.8788C73.9711 27.5294 73.9403 27.18 73.8942 26.8336C73.8449 26.4873 73.7742 26.1501 73.688 25.816C73.5988 25.4819 73.4942 25.154 73.3773 24.8291C72.9065 23.5356 72.245 22.3372 71.5435 21.1817C71.1927 20.6024 70.8266 20.0354 70.4697 19.4653C70.1128 18.8952 69.7559 18.3251 69.4082 17.7489C67.4267 14.5 66.236 11.6526 64.4822 8.27493C64.3715 8.19524 63.6022 7.64047 63.4915 7.56384C65.2206 11.0917 67.0698 14.5643 69.0667 17.9543C69.4082 18.5366 69.7589 19.1128 70.1097 19.6921" fill="#60579E"/>
</g>
<defs>
<clipPath id="clip0_181_25397">
<rect width="80" height="80" fill="white" transform="translate(0.5 0.296753)"/>
</clipPath>
</defs>
</svg>
