<svg width="89" height="81" viewBox="0 0 89 81" fill="none" xmlns="http://www.w3.org/2000/svg">
<path fill-rule="evenodd" clip-rule="evenodd" d="M82.8847 40.4153C82.8847 62.6259 64.8554 80.6315 42.6175 80.6315C20.378 80.6315 2.34863 62.6259 2.34863 40.4153C2.34863 18.2039 20.378 0.199097 42.6175 0.199097C64.8554 0.199097 82.8847 18.2039 82.8847 40.4153Z" fill="#D9D7F9"/>
<path fill-rule="evenodd" clip-rule="evenodd" d="M2.01373 54.3131C-0.134769 51.5663 2.66581 46.3979 3.25381 45.3142C3.60886 44.6586 6.88313 38.8476 13.7036 37.648C16.6877 37.1239 22.5504 37.0954 24.1499 40.362C25.2843 42.6824 23.7195 45.5408 22.8527 47.1252C20.1075 52.1449 15.0051 53.9179 13.1979 54.5164C11.375 55.12 4.44193 57.4154 2.01373 54.3131Z" fill="#C3CFFE"/>
<path fill-rule="evenodd" clip-rule="evenodd" d="M73.536 34.9467C72.1409 33.1625 73.9586 29.8076 74.3405 29.1036C74.5708 28.6781 76.6968 24.9065 81.1254 24.1272C83.0626 23.7873 86.8686 23.7674 87.9069 25.8889C88.6439 27.3955 87.6281 29.2515 87.0652 30.2799C85.2821 33.5387 81.9698 34.6898 80.7972 35.0781C79.6134 35.4699 75.1121 36.9601 73.536 34.9467Z" fill="#C3CFFE"/>
<path fill-rule="evenodd" clip-rule="evenodd" d="M19.9589 28.2304C19.2695 25.7837 22.5897 23.0697 23.2868 22.5007C23.7077 22.1573 27.5249 19.1407 32.4593 20.2148C34.6182 20.6853 38.5809 22.2853 38.7549 24.9309C38.8788 26.8085 37.0316 28.3065 36.0081 29.1359C32.7658 31.7642 28.8325 31.5515 27.4478 31.4555C26.051 31.3595 20.7374 30.9928 19.9589 28.2304Z" fill="#C3CFFE"/>
<path fill-rule="evenodd" clip-rule="evenodd" d="M63.655 48.6392C63.1372 46.1501 66.6392 43.6748 67.3744 43.155C67.8187 42.8411 71.8368 40.0986 76.6837 41.5135C78.8045 42.1328 82.6468 44.0035 82.6356 46.6543C82.6278 48.538 80.6811 49.9027 79.6021 50.6586C76.1849 53.0543 72.2759 52.5691 70.9007 52.3771C69.5143 52.1842 64.2396 51.4491 63.655 48.6392Z" fill="#C3CFFE"/>
<path fill-rule="evenodd" clip-rule="evenodd" d="M47.3395 40.0006C47.3395 43.6573 43.5283 46.6203 38.8269 46.6203C34.1247 46.6203 30.3135 43.6573 30.3135 40.0006C30.3135 36.3449 34.1247 33.3818 38.8269 33.3818C43.5283 33.3818 47.3395 36.3449 47.3395 40.0006Z" fill="#C3CFFE"/>
<path fill-rule="evenodd" clip-rule="evenodd" d="M61.7385 44.776C61.7385 47.5375 58.8591 49.7758 55.3077 49.7758C51.7563 49.7758 48.877 47.5375 48.877 44.776C48.877 42.0145 51.7563 39.7762 55.3077 39.7762C58.8591 39.7762 61.7385 42.0145 61.7385 44.776Z" fill="#C3CFFE"/>
<path fill-rule="evenodd" clip-rule="evenodd" d="M67.3083 29.9669C67.3083 34.1476 62.1713 37.5362 55.8358 37.5362C49.4994 37.5362 44.3633 34.1476 44.3633 29.9669C44.3633 25.7861 49.4994 22.3967 55.8358 22.3967C62.1713 22.3967 67.3083 25.7861 67.3083 29.9669Z" fill="#C3CFFE"/>
<path fill-rule="evenodd" clip-rule="evenodd" d="M52.5656 55.1662C52.5656 58.3394 47.4295 60.9124 41.0931 60.9124C34.7576 60.9124 29.6206 58.3394 29.6206 55.1662C29.6206 51.993 34.7576 49.42 41.0931 49.42C47.4295 49.42 52.5656 51.993 52.5656 55.1662Z" fill="#C3CFFE"/>
<path fill-rule="evenodd" clip-rule="evenodd" d="M1.68742 54.3131C1.62507 52.9025 8.66202 53.3574 15.0495 49.0063C20.5779 45.2407 22.7913 39.8015 23.8227 40.362C24.532 40.7477 23.9128 43.5594 23.5387 44.7918C23.4633 45.0409 23.1447 46.0588 22.5263 47.1252C19.9189 51.626 13.5791 54.2327 12.8707 54.5164C10.5464 55.447 8.18227 56.3577 5.17212 55.8396C4.81707 55.7773 1.72812 55.2454 1.68742 54.3131Z" fill="#948EBE"/>
<path fill-rule="evenodd" clip-rule="evenodd" d="M73.2089 34.9466C73.131 34.221 78.1043 34.4744 82.694 30.8134C85.718 28.3996 86.9572 25.5775 87.5798 25.8889C88.1115 26.1544 87.7288 28.4705 86.7381 30.2798C84.9551 33.5386 81.6427 34.6898 80.4701 35.0781C76.988 36.2301 73.2765 35.5676 73.2089 34.9466Z" fill="#948EBE"/>
<path fill-rule="evenodd" clip-rule="evenodd" d="M19.6313 28.2304C19.84 27.5679 24.2695 29.8226 30.0291 28.5089C34.9964 27.3768 37.8645 24.2936 38.4274 24.931C38.8656 25.4257 37.4757 27.6804 35.6805 29.1359C32.4383 31.7643 28.5059 31.5515 27.1203 31.4555C22.9463 31.1675 19.4425 28.8298 19.6313 28.2304Z" fill="#948EBE"/>
<path fill-rule="evenodd" clip-rule="evenodd" d="M63.3277 48.6392C63.5737 48.0303 67.6862 50.567 73.3593 49.7765C78.5794 49.05 81.78 45.9693 82.3083 46.6543C82.7092 47.1741 81.1687 49.3319 79.2748 50.6586C75.8576 53.0543 71.9486 52.5691 70.5734 52.3771C66.4089 51.7968 63.1026 49.1979 63.3277 48.6392Z" fill="#948EBE"/>
<path fill-rule="evenodd" clip-rule="evenodd" d="M47.0128 40.0007C47.6796 40.9365 46.1001 43.3304 44.5803 44.6424C42.0776 46.8037 39.0103 46.6532 38.4994 46.6204C33.3026 46.2874 29.3252 41.1103 29.9859 40.0007C30.4709 39.186 33.0896 41.1933 38.2595 41.0965C43.3809 40.9987 46.2456 38.9265 47.0128 40.0007Z" fill="#948EBE"/>
<path fill-rule="evenodd" clip-rule="evenodd" d="M61.4117 44.776C61.9962 45.3849 61.1441 47.4735 59.7568 48.6541C57.9607 50.1823 55.646 49.8675 54.9809 49.7758C50.9307 49.224 48.1431 45.3537 48.5501 44.776C48.8896 44.2951 51.1074 46.5671 54.8276 46.4755C58.5392 46.3838 60.6851 44.0184 61.4117 44.776Z" fill="#948EBE"/>
<path fill-rule="evenodd" clip-rule="evenodd" d="M66.9812 29.9668C67.7103 30.9407 65.9221 33.6434 64.2334 35.1526C61.6779 37.4384 58.621 37.6417 57.012 37.7489C55.6741 37.8388 51.9027 38.0352 48.3306 35.6144C45.8383 33.9262 43.3954 30.9303 44.0362 29.9668C44.8242 28.782 49.1359 32.3781 55.9044 32.1999C62.2088 32.0339 66.0425 28.7128 66.9812 29.9668Z" fill="#948EBE"/>
<path fill-rule="evenodd" clip-rule="evenodd" d="M52.2395 55.1663C52.7253 56.1159 50.7188 58.1881 49.1211 59.271C46.5041 61.0448 43.7711 60.9817 40.767 60.9125C37.8408 60.8441 34.835 60.7352 32.0561 58.7062C30.9554 57.9019 28.8684 56.0493 29.2936 55.1663C29.8548 54.0005 34.0097 56.1272 40.5894 56.1488C47.4108 56.1704 51.5986 53.9131 52.2395 55.1663Z" fill="#948EBE"/>
<path fill-rule="evenodd" clip-rule="evenodd" d="M2.19575 54.1949C4.07666 56.5984 9.1054 55.5692 12.9945 54.2814C17.4543 52.8051 20.6368 50.3739 22.4527 47.0546C23.272 45.5575 24.797 42.77 23.7413 40.6122C22.322 37.7106 16.9408 37.5134 13.67 38.0894C7.06862 39.25 3.816 44.9322 3.46701 45.5757C1.35142 49.4788 0.900249 52.5396 2.19575 54.1949ZM6.13596 56.3493C4.04635 56.3493 2.54388 55.7742 1.64413 54.6247C0.145981 52.7099 0.563384 49.4658 2.85217 45.2436C3.44796 44.1434 6.76639 38.5936 13.5487 37.401C16.5416 36.8751 22.6562 36.8042 24.3692 40.3052C25.5841 42.7882 23.9466 45.7806 23.0667 47.3893C21.1624 50.8686 17.8475 53.4113 13.2145 54.9439C10.3845 55.8805 8.0212 56.3493 6.13596 56.3493Z" fill="#60579E"/>
<path fill-rule="evenodd" clip-rule="evenodd" d="M16.7061 38.2692C15.6331 38.2692 14.5983 38.3644 13.7453 38.5149C7.34741 39.6401 4.18659 45.157 3.84712 45.7823C1.84931 49.4692 1.37129 52.4392 2.5369 53.9285C3.88349 55.6496 7.54745 55.6297 12.8585 53.8705C17.2109 52.4297 20.3111 50.0669 22.0725 46.8478C22.8545 45.4191 24.3093 42.7588 23.3524 40.8024C22.4163 38.8876 19.4322 38.2692 16.7061 38.2692ZM6.13591 56.7817C3.91207 56.7817 2.28576 56.146 1.30374 54.8911C-0.308711 52.831 0.0939692 49.4225 2.47195 45.0377C3.0842 43.9073 6.49442 38.2027 13.4742 36.9754C16.5762 36.4288 22.9316 36.3821 24.7588 40.1157C26.0716 42.8003 24.3639 45.9207 23.446 47.5968C21.488 51.1756 18.0916 53.7858 13.3504 55.3547C10.4892 56.3017 8.06185 56.7817 6.13591 56.7817Z" fill="#60579E"/>
<path fill-rule="evenodd" clip-rule="evenodd" d="M73.7177 34.8275C74.3672 35.6578 76.0862 36.3341 80.5919 34.844C83.4583 33.8943 85.5011 32.335 86.6641 30.2091C87.1863 29.2561 88.1562 27.4822 87.498 26.1382C86.607 24.316 83.1794 24.2009 81.0915 24.5676C76.863 25.3114 74.7785 28.9534 74.5543 29.3668C73.2059 31.8541 72.908 33.794 73.7177 34.8275ZM76.1806 36.4223C74.782 36.4223 73.774 36.0349 73.1661 35.2574C72.1616 33.9739 72.4291 31.8212 73.9394 29.0338C74.3308 28.3108 76.5122 24.6636 80.9703 23.8801C82.9447 23.5324 86.9819 23.4935 88.1267 25.8329C88.9434 27.4995 87.86 29.4792 87.279 30.543C86.0276 32.8297 83.8514 34.4997 80.8127 35.5064C78.9673 36.117 77.4198 36.4223 76.1806 36.4223Z" fill="#60579E"/>
<mask id="mask0_181_26290" style="mask-type:luminance" maskUnits="userSpaceOnUse" x="72" y="23" width="17" height="14">
<path fill-rule="evenodd" clip-rule="evenodd" d="M72.1396 23.2661H88.8558V36.8543H72.1396V23.2661Z" fill="white"/>
</mask>
<g mask="url(#mask0_181_26290)">
<path fill-rule="evenodd" clip-rule="evenodd" d="M83.0807 24.8344C82.3879 24.8344 81.7177 24.8966 81.1669 24.9935C77.141 25.7018 75.1492 29.1777 74.9353 29.573C73.6926 31.8666 73.3731 33.6845 74.059 34.5615C74.5205 35.1513 75.965 35.9185 80.4568 34.4335C83.215 33.5193 85.1764 32.0283 86.2849 30.0028C86.7689 29.1172 87.6696 27.4722 87.1093 26.3288C86.5576 25.1993 84.7547 24.8344 83.0807 24.8344ZM76.1806 36.8543C74.6461 36.8543 73.5169 36.4071 72.8258 35.5232C71.707 34.0945 71.9598 31.7784 73.5593 28.8274C73.9672 28.0741 76.2395 24.2731 80.8959 23.454C83.1336 23.0588 87.2608 23.077 88.5156 25.643C89.4301 27.5094 88.2801 29.6153 87.6609 30.7474C86.3533 33.1362 84.0965 34.8746 80.9496 35.9167C79.0687 36.5394 77.4649 36.8543 76.1806 36.8543Z" fill="#60579E"/>
</g>
<path fill-rule="evenodd" clip-rule="evenodd" d="M20.2014 28.232C20.5261 29.3849 22.0346 30.8362 27.3777 31.2046C30.7706 31.4372 33.5695 30.6831 35.6937 28.9611C36.6472 28.1879 38.4233 26.7479 38.3116 25.0493C38.16 22.7531 34.6277 21.1618 32.2904 20.6532C27.5535 19.6223 23.8238 22.5326 23.4142 22.8682C20.9374 24.8919 19.7961 26.7964 20.2014 28.232ZM28.5615 31.944C28.1589 31.944 27.7492 31.9293 27.3292 31.8999C22.7144 31.5825 20.0897 30.4124 19.5285 28.4215C19.0358 26.677 20.2265 24.5702 22.9708 22.3276C23.6835 21.7447 27.4886 18.8915 32.4394 19.97C34.6286 20.4474 38.8191 22.1131 39.0096 25.0044C39.1455 27.0628 37.1867 28.6498 36.1345 29.5034C34.1332 31.125 31.5899 31.944 28.5615 31.944Z" fill="#60579E"/>
<path fill-rule="evenodd" clip-rule="evenodd" d="M30.2388 20.8656C26.6614 20.8656 24.0228 22.9291 23.6894 23.2024C21.3868 25.0826 20.2679 26.8729 20.6186 28.1149C20.8533 28.9494 22.0475 30.4033 27.407 30.7726C30.69 30.9974 33.384 30.2762 35.42 28.6251C36.3145 27.9021 37.9772 26.5546 37.8793 25.0783C37.7451 23.0338 34.3236 21.5384 32.1985 21.0757C31.5213 20.9287 30.8658 20.8656 30.2388 20.8656ZM28.5614 32.3769C28.1492 32.3769 27.7292 32.3622 27.2988 32.3319C22.4831 31.9998 19.7275 30.7233 19.111 28.5386C18.5689 26.616 19.8089 24.3527 22.697 21.9933C23.4365 21.3879 27.3802 18.4258 32.531 19.5484C35.0008 20.0863 39.2346 21.8351 39.4416 24.9754C39.5922 27.2569 37.5217 28.9356 36.4098 29.8377C34.3297 31.5224 31.6893 32.3769 28.5614 32.3769Z" fill="#60579E"/>
<path fill-rule="evenodd" clip-rule="evenodd" d="M63.9033 48.6646C64.1466 49.8365 65.5504 51.3889 70.8545 52.1283C74.224 52.598 77.067 52.0393 79.3073 50.4695C80.3127 49.7638 82.1841 48.4518 82.191 46.7498C82.2014 44.4483 78.7877 42.6148 76.4912 41.9446C71.8417 40.5876 67.9145 43.2306 67.4824 43.5359C64.8697 45.3833 63.5993 47.2047 63.9033 48.6646ZM73.0879 52.988C72.3397 52.988 71.5638 52.9327 70.7584 52.8202C66.1756 52.1811 63.6392 50.831 63.2183 48.8064C62.8494 47.0317 64.1839 45.0122 67.0771 42.9668C67.8288 42.4349 71.8244 39.8542 76.6878 41.2743C78.838 41.9022 82.902 43.8551 82.8908 46.7523C82.8821 48.8168 80.8176 50.2637 79.7092 51.0412C77.8612 52.3359 75.6416 52.988 73.0879 52.988Z" fill="#60579E"/>
<path fill-rule="evenodd" clip-rule="evenodd" d="M73.7795 41.9914C70.5303 41.9914 68.064 43.6546 67.7332 43.8889C65.3059 45.6048 64.0649 47.3129 64.3273 48.5765C64.504 49.4249 65.5942 50.9583 70.9148 51.7004C74.1692 52.1553 76.9117 51.6217 79.0593 50.116C80.0007 49.4552 81.7525 48.2262 81.7586 46.7482C81.7681 44.6985 78.4584 42.9687 76.3705 42.3599C75.4716 42.0978 74.5995 41.9914 73.7795 41.9914ZM73.0884 53.4206C72.3212 53.4206 71.5184 53.3618 70.6983 53.2485C65.9164 52.5817 63.257 51.1175 62.7945 48.8939C62.3884 46.9385 63.7826 44.7668 66.8274 42.6141C67.6059 42.0623 71.7496 39.3804 76.8095 40.8593C79.068 41.5183 83.3364 43.5983 83.3234 46.7542C83.3148 49.0401 81.1325 50.5709 79.9608 51.3934C78.0401 52.7391 75.7288 53.4206 73.0884 53.4206Z" fill="#60579E"/>
<path fill-rule="evenodd" clip-rule="evenodd" d="M38.7325 33.8266C34.2312 33.8266 30.5681 36.64 30.5681 40.0977C30.5681 43.5555 34.2312 46.368 38.7325 46.368C43.233 46.368 46.8961 43.5555 46.8961 40.0977C46.8961 36.64 43.233 33.8266 38.7325 33.8266ZM38.7326 47.0668C33.845 47.0668 29.8701 43.9395 29.8701 40.0977C29.8701 36.2551 33.845 33.1287 38.7326 33.1287C43.6193 33.1287 47.595 36.2551 47.595 40.0977C47.595 43.9395 43.6193 47.0668 38.7326 47.0668Z" fill="#60579E"/>
<path fill-rule="evenodd" clip-rule="evenodd" d="M38.7329 34.2591C34.4697 34.2591 31.0015 36.8779 31.0015 40.0978C31.0015 43.3168 34.4697 45.9356 38.7329 45.9356C42.9953 45.9356 46.4635 43.3168 46.4635 40.0978C46.4635 36.8779 42.9953 34.2591 38.7329 34.2591ZM38.7329 47.4993C33.6072 47.4993 29.4375 44.1791 29.4375 40.0978C29.4375 36.0165 33.6072 32.6963 38.7329 32.6963C43.8587 32.6963 48.0283 36.0165 48.0283 40.0978C48.0283 44.1791 43.8587 47.4993 38.7329 47.4993Z" fill="#60579E"/>
<path fill-rule="evenodd" clip-rule="evenodd" d="M55.2133 40.2211C51.8611 40.2211 49.1333 42.3081 49.1333 44.8724C49.1333 47.4376 51.8611 49.5236 55.2133 49.5236C58.5664 49.5236 61.2943 47.4376 61.2943 44.8724C61.2943 42.3081 58.5664 40.2211 55.2133 40.2211ZM55.2133 50.2216C51.4758 50.2216 48.4336 47.8216 48.4336 44.8724C48.4336 41.9232 51.4758 39.5223 55.2133 39.5223C58.9518 39.5223 61.994 41.9232 61.994 44.8724C61.994 47.8216 58.9518 50.2216 55.2133 50.2216Z" fill="#60579E"/>
<path fill-rule="evenodd" clip-rule="evenodd" d="M55.2137 40.6535C52.0997 40.6535 49.5667 42.5458 49.5667 44.8723C49.5667 47.1979 52.0997 49.0911 55.2137 49.0911C58.3286 49.0911 60.8616 47.1979 60.8616 44.8723C60.8616 42.5458 58.3286 40.6535 55.2137 40.6535ZM55.2137 50.654C51.2363 50.654 48.001 48.0602 48.001 44.8723C48.001 41.6836 51.2363 39.0898 55.2137 39.0898C59.1912 39.0898 62.4273 41.6836 62.4273 44.8723C62.4273 48.0602 59.1912 50.654 55.2137 50.654Z" fill="#60579E"/>
<path fill-rule="evenodd" clip-rule="evenodd" d="M55.7414 22.8427C49.6085 22.8427 44.6188 26.0817 44.6188 30.0635C44.6188 34.0445 49.6085 37.2834 55.7414 37.2834C61.8751 37.2834 66.8649 34.0445 66.8649 30.0635C66.8649 26.0817 61.8751 22.8427 55.7414 22.8427ZM55.7414 37.9822C49.2232 37.9822 43.9199 34.4293 43.9199 30.0635C43.9199 25.6968 49.2232 22.1439 55.7414 22.1439C62.2605 22.1439 67.5638 25.6968 67.5638 30.0635C67.5638 34.4293 62.2605 37.9822 55.7414 37.9822Z" fill="#60579E"/>
<path fill-rule="evenodd" clip-rule="evenodd" d="M55.7408 23.2751C49.8461 23.2751 45.0512 26.3203 45.0512 30.0634C45.0512 33.8066 49.8461 36.8509 55.7408 36.8509C61.6355 36.8509 66.4313 33.8066 66.4313 30.0634C66.4313 26.3203 61.6355 23.2751 55.7408 23.2751ZM55.7408 38.4146C48.9836 38.4146 43.4863 34.668 43.4863 30.0634C43.4863 25.458 48.9836 21.7114 55.7408 21.7114C62.4989 21.7114 67.9961 25.458 67.9961 30.0634C67.9961 34.668 62.4989 38.4146 55.7408 38.4146Z" fill="#60579E"/>
<path fill-rule="evenodd" clip-rule="evenodd" d="M40.9992 49.8656C34.8664 49.8656 29.8766 52.2872 29.8766 55.2623C29.8766 58.2392 34.8664 60.6591 40.9992 60.6591C47.1321 60.6591 52.1227 58.2392 52.1227 55.2623C52.1227 52.2872 47.1321 49.8656 40.9992 49.8656ZM40.9992 61.3579C34.3701 61.3579 29.1777 58.6803 29.1777 55.2623C29.1777 51.8444 34.3701 49.1667 40.9992 49.1667C47.6283 49.1667 52.8216 51.8444 52.8216 55.2623C52.8216 58.6803 47.6283 61.3579 40.9992 61.3579Z" fill="#60579E"/>
<path fill-rule="evenodd" clip-rule="evenodd" d="M40.9991 50.298C35.2048 50.298 30.3095 52.5718 30.3095 55.2624C30.3095 57.9538 35.2048 60.2267 40.9991 60.2267C46.7934 60.2267 51.6896 57.9538 51.6896 55.2624C51.6896 52.5718 46.7934 50.298 40.9991 50.298ZM40.9991 61.7904C34.1267 61.7904 28.7446 58.9233 28.7446 55.2624C28.7446 51.6023 34.1267 48.7344 40.9991 48.7344C47.8715 48.7344 53.2544 51.6023 53.2544 55.2624C53.2544 58.9233 47.8715 61.7904 40.9991 61.7904Z" fill="#60579E"/>
<path fill-rule="evenodd" clip-rule="evenodd" d="M49.5347 25.8656C50.4872 25.3847 51.523 25.1002 52.5717 24.909C53.623 24.7266 54.6985 24.6669 55.7706 24.7292C56.8435 24.7785 57.9113 24.9964 58.9305 25.3354C59.1834 25.4271 59.4354 25.5205 59.6839 25.6182C59.9273 25.7341 60.1663 25.8552 60.4053 25.9754L60.7578 26.164C60.8703 26.2375 60.9829 26.3093 61.092 26.3871C61.3129 26.5376 61.5302 26.6907 61.7389 26.8524C61.4791 26.7815 61.228 26.701 60.9803 26.6197C60.8556 26.5808 60.7352 26.5359 60.6123 26.4943L60.2338 26.3992L59.49 26.1968C59.2371 26.1493 58.9868 26.0965 58.7383 26.042C57.7372 25.8492 56.7327 25.7065 55.7152 25.658C54.7002 25.5983 53.6784 25.5923 52.6505 25.6338C51.6208 25.6745 50.5912 25.7592 49.5347 25.8656Z" fill="white"/>
<path fill-rule="evenodd" clip-rule="evenodd" d="M75.9229 30.8132C76.0094 30.0538 76.3091 29.3316 76.7092 28.6743C77.1162 28.0205 77.6522 27.4341 78.2852 26.9688C78.5927 26.7241 78.9469 26.5442 79.2941 26.3626C79.6604 26.2199 80.0198 26.0599 80.4086 25.9967C81.1664 25.8073 81.9587 25.8436 82.6939 26.0036C82.5104 26.0676 82.3302 26.1178 82.1518 26.1671C81.9743 26.219 81.7968 26.2449 81.6279 26.321C81.4573 26.3816 81.2876 26.4387 81.1196 26.4923C80.9499 26.5407 80.7931 26.6315 80.6312 26.6938C80.3021 26.814 80.0059 26.9982 79.6968 27.1479C79.4084 27.3373 79.1071 27.4999 78.8386 27.7169C78.2861 28.1243 77.7717 28.5922 77.2937 29.1128C76.8148 29.6369 76.368 30.1991 75.9229 30.8132Z" fill="white"/>
<path fill-rule="evenodd" clip-rule="evenodd" d="M67.1484 45.7887C67.9694 45.2689 68.8657 44.9004 69.7801 44.5891C70.699 44.2924 71.6429 44.0589 72.6102 43.9439C73.5757 43.8306 74.5604 43.7934 75.5363 43.9257C76.5062 44.065 77.4761 44.3435 78.2927 44.8719C77.3341 44.7093 76.4161 44.6488 75.4913 44.6557C74.5673 44.6643 73.6476 44.7621 72.7262 44.8676C71.8048 44.9765 70.8851 45.1383 69.9594 45.2974C69.0328 45.4574 68.1045 45.633 67.1484 45.7887Z" fill="white"/>
<path fill-rule="evenodd" clip-rule="evenodd" d="M51.5889 43.1645C52.1154 42.7779 52.7103 42.5245 53.3208 42.3299C53.9339 42.1422 54.5713 42.0246 55.2199 41.9943C55.8685 41.9692 56.5284 42.0298 57.1632 42.2028C57.7936 42.3922 58.3998 42.7009 58.8579 43.1645C58.2136 43.0434 57.6299 42.9647 57.0367 42.9241C56.4427 42.8972 55.8555 42.9033 55.2606 42.9249C54.6674 42.9509 54.0682 42.9993 53.4611 43.0451C52.8523 43.0927 52.2375 43.1437 51.5889 43.1645Z" fill="white"/>
<path fill-rule="evenodd" clip-rule="evenodd" d="M34.0493 37.3858C34.6746 36.7285 35.4652 36.2485 36.3043 35.887C37.1478 35.5341 38.0649 35.3188 38.9984 35.2946C39.4643 35.2842 39.9328 35.3145 40.3926 35.3966C40.8516 35.4866 41.3028 35.612 41.7297 35.7936C42.5827 36.1577 43.3473 36.7 43.9319 37.3858C43.1109 37.0113 42.3151 36.6861 41.4967 36.4881C41.088 36.3886 40.6775 36.3194 40.2662 36.271C39.8531 36.2286 39.4392 36.2148 39.0235 36.2243C38.1939 36.2468 37.3626 36.3765 36.5355 36.5789C35.7059 36.7821 34.885 37.0554 34.0493 37.3858Z" fill="white"/>
<path fill-rule="evenodd" clip-rule="evenodd" d="M34.9971 52.6468C35.8319 52.0777 36.7784 51.6955 37.7474 51.4109C38.7208 51.135 39.734 50.9845 40.7524 50.9595C41.007 50.9612 41.2616 50.9413 41.5162 50.9629L42.2791 51.0183C42.5328 51.0468 42.784 51.0935 43.0351 51.1359L43.4118 51.2025L43.7816 51.3028C44.7714 51.5415 45.7014 51.9947 46.5319 52.5508C46.2808 52.5058 46.0383 52.4505 45.7984 52.3943C45.6772 52.3692 45.5594 52.3363 45.4408 52.306C45.3213 52.2792 45.1974 52.2654 45.0779 52.2446L44.3609 52.1115L43.6421 52.0224L43.2854 51.9739L42.926 51.9497C42.6861 51.9376 42.4488 51.9073 42.2098 51.8987C41.7301 51.8918 41.2538 51.8667 40.7749 51.89C39.818 51.9125 38.8593 51.9912 37.8998 52.1244C36.9377 52.2576 35.98 52.4366 34.9971 52.6468Z" fill="white"/>
<path fill-rule="evenodd" clip-rule="evenodd" d="M19.6248 40.0006C19.0246 39.9712 18.4349 39.9643 17.8469 39.9885C17.2615 40.0023 16.6796 40.0534 16.1037 40.12C14.9519 40.2506 13.8244 40.4927 12.7324 40.8413C11.6413 41.1915 10.5943 41.662 9.59152 42.2363C8.59218 42.8175 7.64999 43.5102 6.71387 44.2635C7.35902 43.249 8.21374 42.3652 9.18624 41.6257C10.1691 40.9001 11.2767 40.3284 12.4475 39.9539C13.6175 39.5829 14.8437 39.3892 16.0621 39.3909C17.2771 39.3995 18.4998 39.5604 19.6248 40.0006Z" fill="white"/>
<path fill-rule="evenodd" clip-rule="evenodd" d="M34.0494 23.2228C33.2017 22.8639 32.3443 22.6555 31.4879 22.5776C30.6332 22.4946 29.7845 22.556 28.9523 22.7221L28.3331 22.8803C28.2283 22.9002 28.127 22.934 28.0274 22.9729L27.7235 23.081C27.3095 23.2003 26.925 23.4053 26.5198 23.5705C26.3119 23.6466 26.1301 23.7729 25.9309 23.868L25.3351 24.1724C24.9497 24.3982 24.5678 24.6369 24.147 24.8453C24.4293 24.4821 24.7428 24.1422 25.0632 23.804L25.5966 23.356C25.6867 23.2808 25.7785 23.209 25.8703 23.1355C25.9595 23.0602 26.0565 22.9928 26.1578 22.9348C26.5579 22.6901 26.9536 22.428 27.3996 22.2594L27.7287 22.121C27.8378 22.0725 27.9495 22.0293 28.0655 21.9999L28.7592 21.8114C29.7005 21.6211 30.6894 21.6228 31.616 21.8598C32.0828 21.9653 32.5219 22.1608 32.941 22.3718C33.3471 22.6096 33.742 22.8734 34.0494 23.2228Z" fill="white"/>
</svg>
